<svg version="1.1" id="Layer_1" xmlns="http://www.w3.org/2000/svg" xmlns:xlink="http://www.w3.org/1999/xlink" x="0px" y="0px"
	 viewBox="0 0 64 80" enable-background="new 0 0 64 80" xml:space="preserve">
<g>
	<polygon opacity="0.3" points="17.9,62.2 8.5,65.6 15.2,65.9 11,68.7 20.6,68.6 26.2,67.1 25.3,71.8 31.3,70.8 35.5,67.3 
		43.7,69.8 52.2,68.7 49.5,67 52.5,66.2 40.2,62.9 	"/>
	<path fill="#28896D" d="M53.5,60.5c-2.1-0.6-9.8-2.6-9.8-4.9c3.3,0.2,7.1-1.9,7.8-3.9c-2.5,0.2-6.4-0.6-9.1-1.7
		c-0.4-0.5-0.7-1-0.8-1.5c2.3,0.6,5,0.4,6.9-0.7c-1.1-0.3-2.1-0.6-2.9-1c1.2-1,2-2.3,2.5-3.1c-2.4,0.7-6.9-0.1-6.9-2.2
		c2.6,0.2,5.5-1.8,6.1-3.7c-0.9,0.1-2.1-0.1-3.3-0.3c-1.7-0.8-3.7-2-5.2-3.3c1.8,0.3,4.5,1.1,6.2-0.1c-2.4-0.8-4-1.9-5.2-3.3
		c1.4-0.2,2.5-0.9,2.4-1.6c-1.1-0.4-2.1-1.1-3-1.8c2,0,3.6-1.5,3.5-2.6c-2.8-0.9-7.5-4.8-7.3-7.4c2.2,1.3,4.7,0.2,4.6-0.9
		c-6.9-3.3-8-15.7-8-15.7S29.5,14.5,24,15.3c0.8,2.2,3.4,2.3,4.6,1.2c0,1.7-3.4,5.7-6.5,6c-0.1,1.4,1,2.4,2.7,2.9
		c-0.9,0.7-2,1.1-3.1,1.3c0.1,0.2,0.2,0.4,0.3,0.6c-1.1,0.1-2.1,0-2.6-0.2c0.1,1.3,1.9,4.7,3.8,5.5c-0.2,2-3.4,2.1-5,1.8
		c-0.1,1.3,0.8,2.3,2.1,3.2c0,0,0,0,0,0c0.6,0.4,1.2,0.7,1.7,1c-0.2,2-5.3,1-6.1,0.5c0,0.6,0.2,1.2,0.5,1.8c0.4,1,0.9,2.2,1.7,3.2
		c-1.6,0.1-4-0.4-4.5-0.9c-0.1,1.3,2.7,3.7,5.4,4.7c-1.4,0.5-3.5,0.5-4.7,0.3c-0.2,2,2.6,3.5,4.9,4.4c-0.2,2.1-6.8,1.1-7.8,0.5
		c0.1,1.8,2,4.2,4.9,4.4c-0.2,1.7-6.9,0.7-7.8,0c-0.1,1.7,5.3,5.3,9.3,5.4c1.3,2.9-3.1,3.5-3.9,4.4c3.2,1.5,10.9-0.4,12.7-2.9
		c2.2,1,0.9,5.2,0.3,6.4c4.6,0.3,6.2-4.6,8.5-5.5c2.1,3.7,14.7,4.3,14.7,2.4c-2-1-6-3.1-5.9-5.4C48.1,63.6,53.8,62.4,53.5,60.5z"/>
	<path opacity="0.2" fill="#FFFFFF" d="M48.6,47.7c0,0-5,0.2-9.3-3.9S33.9,37,33.9,37s-1,1.3-4.4,3.4c-3.4,2.1-10.8,2-10.8,2
		s4.7,3.5,11.3,1.5c3.2-1,2.9-1.7,2.9-1.7s4.6,3.9,6.4,4.6C45.9,49.1,48.6,47.7,48.6,47.7z"/>
	<path opacity="0.2" fill="#FFFFFF" d="M20.2,27.6c5.5-0.1,8.8-2,11-3.9c0.4,1.4,2.5,6.6,10.6,9.6c-3.4-0.4-11.4-3.8-11.2-5.9
		C30.2,29.1,23.8,31.5,20.2,27.6z"/>
	<path opacity="0.2" fill="#FFFFFF" d="M26.8,14.4c5.1-3.2,4.3-4.9,5.2-8.9c-0.4,2.3,1.7,7.5,6.3,11c-4.4-0.9-5.7-3.7-6.6-5.8
		C31.4,12.4,29.7,13.5,26.8,14.4z"/>
	<path opacity="0.2" fill="#FFFFFF" d="M24.5,23.1c5.9-3.2,7.6-3.4,8.8-8.4c-0.4,2.3,2,5.9,6.6,9.3c-3.4-0.4-4.9-3.6-6.3-4.7
		C33.2,21,28.5,22.7,24.5,23.1z"/>
	<path opacity="0.2" fill="#FFFFFF" d="M15.2,49c0,0,7.3-0.1,12.9-2.8c1.7-0.1,4.2,5.1,5.4,5.4c1.3-0.4,2.1-0.7,3.5-1.6
		C38.1,55.1,47,59.5,52,61c-9.2,0-15.7-6-16.6-7.8c-1.1,0.9-1.3,3.4-3.4,3.4c-1.7-2.4-4.3-6-4.9-7.8C25.2,48.3,18,50.8,15.2,49z"/>
	<path opacity="0.2" fill="#FFFFFF" d="M10.8,59.1c10.3,1.1,14-3.6,15.8-5.5C25.5,60.7,13.8,62.7,10.8,59.1z"/>
	<path opacity="0.2" fill="#FFFFFF" d="M38,57.8c2.9,4.8,4,7.5,10.7,9.7C37.9,68.1,36.8,60,38,57.8z"/>
	<path opacity="0.2" fill="#FFFFFF" d="M28.2,69.5c0.6,0.3,6.9-9.7,2.3-11.5C27.9,59.3,30.2,64.6,28.2,69.5z"/>
	<path opacity="0.3" d="M35.5,28c-2.6-2.1-2.6-2.1-2.6-2.1s2.1,2.6,3.5,4.3c0,0,0,0,0,0c2.8,1.4,6,0.2,5.9-1
		C42.2,29.1,38.2,30.2,35.5,28z"/>
	<path opacity="0.3" d="M39,65c-3.3-3.4-4-8.5-4-8.5s-2,6.8-3.5,9.9c-1,2-1.9,3.6-4.5,4.3c0,0.1,0,0.1-0.1,0.2
		c4.6,0.3,6.2-4.6,8.5-5.5c2.1,3.7,14.7,4.3,14.7,2.4C50.1,67.8,42.2,68.3,39,65z"/>
	<path opacity="0.3" d="M44.7,53.1c-3.3-0.2-7.8-6.3-7.8-6.3S34.6,48,33.3,47c-1.3-0.9-2.5-2-2.5-2s1.2,5.7,2.9,5.4
		c1.8-0.3,2.8-0.8,3.5-1.6c0.8,4.4,6.5,6.8,6.5,6.7c3.3,0.2,7.1-1.9,7.8-3.9C51.5,51.7,47.9,53.3,44.7,53.1z"/>
	<path opacity="0.3" d="M24.4,38.9c0,0,0-0.6,0-0.6c1,0,1.9,0.5,2.8,0.4c2.5-0.3,6.7-3.3,6.7-3.3l-3.3,0.3L32,33
		c0,0-3.8,3.1-7.1,3.5c-3.4,0.4-6.4-1.8-6.4-1.8C18.2,36.7,21.3,38.7,24.4,38.9z"/>
	<g>
		<path opacity="0.3" d="M19.2,52.6c-0.2,2.1-6.8,1.1-7.8,0.5c4.8,3.1,13.9-0.5,13.9-0.5L21,52.7l5-2.4c0,0-11.1,0.7-11.6-2.1
			C14.1,50.2,16.9,51.8,19.2,52.6z"/>
		<path opacity="0.3" d="M23.9,55c0,0-3.5,1-5.9,1c-2.2,0-6.4-2.2-6.6-2.8c0.2,1.8,2,4.1,4.9,4.3C22,58,23.9,55,23.9,55z"/>
	</g>
	<path opacity="0.3" d="M28.3,65.4c0-2-0.5-13.5-0.5-13.5s-0.3,6.9-6.5,12.8c-2.1,2-7.5,2.6-7.5,2.6c3.2,1.5,10.9-0.4,12.7-2.9
		c1.7,0.8,1.3,3.4,0.8,5.2C27.8,68.4,28.3,66.6,28.3,65.4z"/>
	<path opacity="0.3" d="M47.3,37.7c0,0-3.3,1.8-6.6,1c-3.3-0.8-5.7-3-5.7-3s1.3,3.7,2.8,6c1.6,2.4,7.5,4.5,10.3,2
		c-2.4,0.7-6.9-0.1-6.9-2.2C43.8,41.5,46.8,39.6,47.3,37.7z"/>
	<path opacity="0.3" d="M39,24.9c-2.8-0.4-5.6-3.9-5.6-3.9s-2.8,1.5-0.1,3.3c2.7,1.7,0.3,2.2,5.8,3.1c2,0,3.6-1.5,3.5-2.6
		C42.8,24.8,41.8,25.3,39,24.9z"/>
	<path opacity="0.3" d="M22.1,22.5c0,0,2,0.5,6.6-2.4s3-8,3-8s-1.7,2.3-3.5,2.6c-1.5,0.2-3.1,0.7-4,0.6c-0.2,0-0.3,0-0.3,0
		c0.8,2.2,3.4,2.3,4.6,1.2C28.6,18.2,25.2,22.2,22.1,22.5z"/>
	<g>
		<circle fill="#CC291F" cx="24" cy="44" r="1"/>
		<circle fill="#CC291F" cx="24" cy="44" r="1"/>
	</g>
	<g>
		<circle fill="#CC291F" cx="35" cy="51" r="1"/>
		<circle fill="#CC291F" cx="35" cy="51" r="1"/>
	</g>
	<g>
		<circle fill="#CC291F" cx="43" cy="61" r="1"/>
		<circle fill="#CC291F" cx="43" cy="61" r="1"/>
	</g>
	<g>
		<circle fill="#CC291F" cx="34" cy="57" r="1"/>
		<circle fill="#CC291F" cx="34" cy="57" r="1"/>
	</g>
	<g>
		<circle fill="#CC291F" cx="19" cy="65" r="1"/>
		<circle fill="#CC291F" cx="19" cy="65" r="1"/>
	</g>
	<g>
		<circle fill="#CC291F" cx="28" cy="60" r="1"/>
		<circle fill="#CC291F" cx="28" cy="60" r="1"/>
	</g>
	<g>
		<circle fill="#CC291F" cx="16" cy="50" r="1"/>
		<circle fill="#CC291F" cx="16" cy="50" r="1"/>
	</g>
	<g>
		<circle fill="#CC291F" cx="44" cy="51" r="1"/>
		<circle fill="#CC291F" cx="44" cy="51" r="1"/>
	</g>
	<g>
		<circle fill="#CC291F" cx="21" cy="29" r="1"/>
		<circle fill="#CC291F" cx="21" cy="29" r="1"/>
	</g>
	<g>
		<circle fill="#FF9900" cx="29" cy="21" r="1"/>
		<circle fill="#FF9900" cx="29" cy="21" r="1"/>
	</g>
	<g>
		<circle fill="#FFCC00" cx="23" cy="23" r="1"/>
		<circle fill="#FFCC00" cx="23" cy="23" r="1"/>
	</g>
	<g>
		<circle fill="#FFCC00" cx="32" cy="27" r="1"/>
		<circle fill="#FFCC00" cx="32" cy="27" r="1"/>
	</g>
	<g>
		<circle fill="#CC291F" cx="33" cy="22" r="1"/>
		<circle fill="#CC291F" cx="33" cy="22" r="1"/>
	</g>
	<g>
		<circle fill="#FFCC00" cx="31" cy="16" r="1"/>
		<circle fill="#FFCC00" cx="31" cy="16" r="1"/>
	</g>
	<g>
		<circle fill="#CC291F" cx="27" cy="14" r="1"/>
		<circle fill="#CC291F" cx="27" cy="14" r="1"/>
	</g>
	<g>
		<circle fill="#CC291F" cx="33" cy="11" r="1"/>
		<circle fill="#CC291F" cx="33" cy="11" r="1"/>
	</g>
	<g>
		<circle fill="#FFCC00" cx="32" cy="6" r="1"/>
		<circle fill="#FFCC00" cx="32" cy="6" r="1"/>
	</g>
	<g>
		<circle fill="#FFCC00" cx="37" cy="24" r="1"/>
		<circle fill="#FFCC00" cx="37" cy="24" r="1"/>
	</g>
	<g>
		<circle fill="#CC291F" cx="38" cy="30" r="1"/>
		<circle fill="#CC291F" cx="38" cy="30" r="1"/>
	</g>
	<g>
		<circle fill="#FF9900" cx="37" cy="16" r="1"/>
		<circle fill="#FF9900" cx="37" cy="16" r="1"/>
	</g>
	<g>
		<circle fill="#FFCC00" cx="19" cy="43" r="1"/>
		<circle fill="#FFCC00" cx="19" cy="43" r="1"/>
	</g>
	<g>
		<circle fill="#FFCC00" cx="20" cy="54" r="1"/>
		<circle fill="#FFCC00" cx="20" cy="54" r="1"/>
	</g>
	<g>
		<circle fill="#FFCC00" cx="19" cy="60" r="1"/>
		<circle fill="#FFCC00" cx="19" cy="60" r="1"/>
	</g>
	<g>
		<circle fill="#FFCC00" cx="28" cy="38" r="1"/>
		<circle fill="#FFCC00" cx="28" cy="38" r="1"/>
	</g>
	<g>
		<circle fill="#FFCC00" cx="27" cy="50" r="1"/>
		<circle fill="#FFCC00" cx="27" cy="50" r="1"/>
	</g>
	<g>
		<circle fill="#FFCC00" cx="40" cy="53" r="1"/>
		<circle fill="#FFCC00" cx="40" cy="53" r="1"/>
	</g>
	<g>
		<circle fill="#FFCC00" cx="33" cy="62" r="1"/>
		<circle fill="#FFCC00" cx="33" cy="62" r="1"/>
	</g>
	<g>
		<circle fill="#FFCC00" cx="29" cy="67" r="1"/>
		<circle fill="#FFCC00" cx="29" cy="67" r="1"/>
	</g>
	<g>
		<circle fill="#FFCC00" cx="44" cy="67" r="1"/>
		<circle fill="#FFCC00" cx="44" cy="67" r="1"/>
	</g>
	<g>
		<circle fill="#CC291F" cx="30" cy="43" r="1"/>
		<circle fill="#CC291F" cx="30" cy="43" r="1"/>
	</g>
	<g>
		<circle fill="#FFCC00" cx="36" cy="34" r="1"/>
		<circle fill="#FFCC00" cx="36" cy="34" r="1"/>
	</g>
	<g>
		<circle fill="#FFCC00" cx="25" cy="32" r="1"/>
		<circle fill="#FFCC00" cx="25" cy="32" r="1"/>
	</g>
	<g>
		<circle fill="#FFCC00" cx="40" cy="39" r="1"/>
		<circle fill="#FFCC00" cx="40" cy="39" r="1"/>
	</g>
	<g>
		<circle fill="#FFCC00" cx="40" cy="46" r="1"/>
		<circle fill="#FFCC00" cx="40" cy="46" r="1"/>
	</g>
	<g>
		<circle fill="#FFCC00" cx="43" cy="35" r="1"/>
		<circle fill="#FFCC00" cx="43" cy="35" r="1"/>
	</g>
	<g>
		<circle fill="#FF9900" cx="30" cy="32" r="1"/>
		<circle fill="#FF9900" cx="30" cy="32" r="1"/>
	</g>
	<g>
		<circle fill="#FF9900" cx="27" cy="27" r="1"/>
		<circle fill="#FF9900" cx="27" cy="27" r="1"/>
	</g>
	<g>
		<circle fill="#FF9900" cx="23" cy="36" r="1"/>
		<circle fill="#FF9900" cx="23" cy="36" r="1"/>
	</g>
	<g>
		<circle fill="#FF9900" cx="45" cy="40" r="1"/>
		<circle fill="#FF9900" cx="45" cy="40" r="1"/>
	</g>
	<g>
		<circle fill="#FF9900" cx="35" cy="39" r="1"/>
		<circle fill="#FF9900" cx="35" cy="39" r="1"/>
	</g>
	<g>
		<circle fill="#FF9900" cx="38" cy="64" r="1"/>
		<circle fill="#FF9900" cx="38" cy="64" r="1"/>
	</g>
	<g>
		<circle fill="#FF9900" cx="30" cy="55" r="1"/>
		<circle fill="#FF9900" cx="30" cy="55" r="1"/>
	</g>
	<g>
		<circle fill="#FF9900" cx="34" cy="46" r="1"/>
		<circle fill="#FF9900" cx="34" cy="46" r="1"/>
	</g>
	<g>
		<circle fill="#FF9900" cx="40" cy="57" r="1"/>
		<circle fill="#FF9900" cx="40" cy="57" r="1"/>
	</g>
	<g>
		<circle fill="#FF9900" cx="23" cy="58" r="1"/>
		<circle fill="#FF9900" cx="23" cy="58" r="1"/>
	</g>
	<g>
		<circle fill="#FF9900" cx="22" cy="48" r="1"/>
		<circle fill="#FF9900" cx="22" cy="48" r="1"/>
	</g>
	<g>
		<circle fill="#FF9900" cx="13" cy="60" r="1"/>
		<circle fill="#FF9900" cx="13" cy="60" r="1"/>
	</g>
	<g>
		<circle fill="#FF9900" cx="24" cy="64" r="1"/>
		<circle fill="#FF9900" cx="24" cy="64" r="1"/>
	</g>
	<g>
		<circle fill="#FF9900" cx="49" cy="61" r="1"/>
		<circle fill="#FF9900" cx="49" cy="61" r="1"/>
	</g>
</g>
</svg>
