<svg width="243" height="155" viewBox="0 0 243 155" fill="none" xmlns="http://www.w3.org/2000/svg">
<path d="M46.5 61.5L30 78H212.5L196 61.5H46.5Z" fill="#4F230D"/>
<path d="M39.5 17.5L46.5 61.5H196L203.5 17.5H39.5Z" fill="#30160A"/>
<ellipse cx="121.5" cy="82" rx="78.5" ry="36" fill="#FDB62F"/>
<g filter="url(#filter0_f)">
<ellipse cx="121.5" cy="78" rx="78.5" ry="36" fill="#FDB62F"/>
</g>
<g filter="url(#filter1_f)">
<ellipse cx="121.5" cy="72" rx="91.5" ry="42" fill="#FDB62F" fill-opacity="0.6"/>
</g>
<mask id="mask0" mask-type="alpha" maskUnits="userSpaceOnUse" x="30" y="78" width="183" height="77">
<rect x="30" y="78" width="183" height="77" fill="#C4C4C4"/>
</mask>
<g mask="url(#mask0)">
<path d="M178.875 30.5625H64.125C55.812 43.032 51.375 57.6849 51.375 72.6726V81.5625L54.2437 138.912L68.0233 138.938H181.492L188.756 138.902L191.625 81.5625V72.6726C191.625 57.6849 187.188 43.032 178.875 30.5625Z" fill="#4F230D"/>
<path d="M86.4375 30.5625C80.2314 38.8372 76.875 48.9034 76.875 59.25V138.938H89.625V59.25C89.625 48.9034 92.9814 38.8372 99.1875 30.5625H86.4375Z" fill="#FDB62F"/>
<path d="M156.562 30.5625H143.812C150.019 38.8372 153.375 48.9034 153.375 59.25V138.938H166.125V59.25C166.125 48.9034 162.769 38.8372 156.562 30.5625Z" fill="#FDB62F"/>
<path d="M76.875 94.3125H89.625V100.688H76.875V94.3125Z" fill="#DB9E29"/>
<path d="M153.375 94.3125H166.125V100.688H153.375V94.3125Z" fill="#DB9E29"/>
<path d="M54.2432 138.912L54.5619 145.312L111.937 154.875L121.499 148.5L131.062 154.875L188.437 145.312L188.756 138.925L54.2432 138.912Z" fill="#281207"/>
<path d="M211.053 58.485C209.057 42.5347 195.498 30.5625 179.423 30.5625H178.875C187.188 43.032 191.625 57.6849 191.625 72.6726V81.5625L188.438 145.312V154.875H207.563L211.923 104.732C212.592 97.0219 212.854 89.289 212.707 81.5625C212.564 73.8519 212.012 66.1478 211.053 58.485Z" fill="#FDB62F"/>
<path d="M64.1252 30.5625H63.577C47.5024 30.5625 33.9428 42.5316 31.9474 58.485C30.0285 73.8264 29.7385 89.3304 31.0772 104.736L35.4377 154.875H54.5627V145.312L51.3752 81.5625V72.6726C51.3752 57.6849 55.8122 43.032 64.1252 30.5625Z" fill="#FDB62F"/>
<path d="M54.0842 135.75H33.7734L35.4373 154.875H54.5623V145.312L54.0842 135.75Z" fill="#EDAB2C"/>
<path d="M188.916 135.75L188.438 145.312V154.875H207.563L209.226 135.75H188.916Z" fill="#EDAB2C"/>
<path d="M41.8125 97.5C40.053 97.5 38.625 96.072 38.625 94.3125C38.625 92.553 40.053 91.125 41.8125 91.125C43.572 91.125 45 92.553 45 94.3125C45 96.072 43.572 97.5 41.8125 97.5Z" fill="#30160A"/>
<path d="M41.8125 123C40.053 123 38.625 121.572 38.625 119.812C38.625 118.053 40.053 116.625 41.8125 116.625C43.572 116.625 45 118.053 45 119.812C45 121.572 43.572 123 41.8125 123Z" fill="#30160A"/>
<path d="M201.188 97.5C199.428 97.5 198 96.072 198 94.3125C198 92.553 199.428 91.125 201.188 91.125C202.947 91.125 204.375 92.553 204.375 94.3125C204.375 96.072 202.947 97.5 201.188 97.5Z" fill="#30160A"/>
<path d="M201.188 123C199.428 123 198 121.572 198 119.812C198 118.053 199.428 116.625 201.188 116.625C202.947 116.625 204.375 118.053 204.375 119.812C204.375 121.572 202.947 123 201.188 123Z" fill="#30160A"/>
<path opacity="0.16" d="M30.293 78.375H212.71V84.75H30.293V78.375Z" fill="black"/>
<path d="M128.997 99.1575L126.498 93.2925C131.206 91.2812 134.25 86.6784 134.25 81.5625C134.25 74.5309 128.532 68.8125 121.5 68.8125C114.468 68.8125 108.75 74.5309 108.75 81.5625C108.75 86.6784 111.794 91.2812 116.505 93.2925L114.006 99.1575C106.94 96.1421 102.375 89.238 102.375 81.5625C102.375 71.0151 110.953 62.4375 121.5 62.4375C132.047 62.4375 140.625 71.0151 140.625 81.5625C140.625 89.238 136.061 96.1421 128.997 99.1575Z" fill="#30160A"/>
<path fill-rule="evenodd" clip-rule="evenodd" d="M131 104.812L133.76 106.406C135.284 107.286 135.807 109.237 134.927 110.76L122.177 132.844C121.297 134.368 119.346 134.89 117.823 134.011L95.739 121.261C94.2152 120.381 93.6925 118.43 94.5723 116.906L107.322 94.8228C108.202 93.2991 110.153 92.7764 111.676 93.6561L114.437 95.2499L114.781 94.6544L120.302 97.8419L119.958 98.4374L125.479 101.625L127.073 98.8644C127.951 97.3434 127.427 95.3884 125.906 94.5102C124.854 93.903 123.595 93.9661 122.627 94.5659L116.883 91.2491C119.789 87.6591 124.969 86.6084 129.093 88.9893C133.659 91.6254 135.229 97.4861 132.593 102.052L131 104.812Z" fill="#FDB62F"/>
<path d="M119.104 112.667C119.984 111.143 119.461 109.192 117.937 108.312C116.413 107.433 114.463 107.955 113.583 109.479C113.02 110.454 113.083 111.576 113.561 112.507L108.523 121.233L111.458 122.927L116.496 114.201C117.54 114.145 118.543 113.638 119.104 112.667Z" fill="#30160A"/>
</g>
<g clip-path="url(#clip0)">
<mask id="mask1" mask-type="alpha" maskUnits="userSpaceOnUse" x="16" y="-3" width="216" height="22">
<rect x="16.459" y="-2.68799" width="214.59" height="21.28" fill="#C4C4C4"/>
</mask>
<g mask="url(#mask1)">
<path d="M173.231 4.17102H69.7684C62.273 7.96175 58.2725 12.4162 58.2725 16.9725V19.675L60.859 37.1093L73.2832 37.117H175.591L182.141 37.1064L184.727 19.675V16.9725C184.727 12.4162 180.727 7.96175 173.231 4.17102Z" fill="#4F230D"/>
<path d="M89.8866 4.17102C84.2909 6.68654 81.2646 9.74665 81.2646 12.892V37.117H92.7606V12.892C92.7606 9.74665 95.7868 6.68654 101.382 4.17102H89.8866Z" fill="#FDB62F"/>
<path d="M153.114 4.17102H141.618C147.214 6.68654 150.24 9.74665 150.24 12.892V37.117H161.736V12.892C161.736 9.74665 158.71 6.68654 153.114 4.17102Z" fill="#FDB62F"/>
<path d="M202.244 12.6595C200.445 7.81058 188.219 4.17102 173.726 4.17102H173.231C180.727 7.96175 184.727 12.4162 184.727 16.9725V19.675L181.853 39.055V41.962H199.097L203.029 26.7187C203.632 24.3747 203.868 22.0239 203.736 19.675C203.606 17.331 203.109 14.9889 202.244 12.6595Z" fill="#FDB62F"/>
<path d="M69.769 4.17102H69.2747C54.7812 4.17102 42.5553 7.80962 40.7562 12.6595C39.0261 17.3233 38.7646 22.0365 39.9716 26.7197L43.9032 41.962H61.1471V39.055L58.2731 19.675V16.9725C58.2731 12.4162 62.2737 7.96175 69.769 4.17102Z" fill="#FDB62F"/>
<path d="M49.6513 16.768C48.0649 16.768 46.7773 16.3339 46.7773 15.799C46.7773 15.2641 48.0649 14.83 49.6513 14.83C51.2378 14.83 52.5253 15.2641 52.5253 15.799C52.5253 16.3339 51.2378 16.768 49.6513 16.768Z" fill="#30160A"/>
<path d="M193.35 16.768C191.763 16.768 190.476 16.3339 190.476 15.799C190.476 15.2641 191.763 14.83 193.35 14.83C194.936 14.83 196.224 15.2641 196.224 15.799C196.224 16.3339 194.936 16.768 193.35 16.768Z" fill="#30160A"/>
<path d="M128.26 25.0239L126.007 23.2409C130.252 22.6295 132.997 21.2303 132.997 19.675C132.997 17.5374 127.841 15.799 121.501 15.799C115.161 15.799 110.005 17.5374 110.005 19.675C110.005 21.2303 112.749 22.6295 116.997 23.2409L114.744 25.0239C108.372 24.1072 104.257 22.0084 104.257 19.675C104.257 16.4686 111.991 13.861 121.501 13.861C131.011 13.861 138.745 16.4686 138.745 19.675C138.745 22.0084 134.629 24.1072 128.26 25.0239Z" fill="#30160A"/>
</g>
</g>
<defs>
<filter id="filter0_f" x="29" y="28" width="185" height="100" filterUnits="userSpaceOnUse" color-interpolation-filters="sRGB">
<feFlood flood-opacity="0" result="BackgroundImageFix"/>
<feBlend mode="normal" in="SourceGraphic" in2="BackgroundImageFix" result="shape"/>
<feGaussianBlur stdDeviation="7" result="effect1_foregroundBlur"/>
</filter>
<filter id="filter1_f" x="0" y="0" width="243" height="144" filterUnits="userSpaceOnUse" color-interpolation-filters="sRGB">
<feFlood flood-opacity="0" result="BackgroundImageFix"/>
<feBlend mode="normal" in="SourceGraphic" in2="BackgroundImageFix" result="shape"/>
<feGaussianBlur stdDeviation="15" result="effect1_foregroundBlur"/>
</filter>
<clipPath id="clip0">
<rect width="165" height="38" fill="white" transform="translate(39 4)"/>
</clipPath>
</defs>
</svg>
