<svg width="183" height="125" viewBox="0 0 183 125" fill="none" xmlns="http://www.w3.org/2000/svg">
<path d="M148.875 0.5625H34.125C25.812 13.032 21.375 27.6849 21.375 42.6726V51.5625L24.2437 108.912L38.0233 108.938H151.492L158.756 108.902L161.625 51.5625V42.6726C161.625 27.6849 157.188 13.032 148.875 0.5625Z" fill="#4F230D"/>
<path d="M56.4375 0.5625C50.2314 8.83725 46.875 18.9034 46.875 29.25V108.938H59.625V29.25C59.625 18.9034 62.9814 8.83725 69.1875 0.5625H56.4375Z" fill="#FDB62F"/>
<path d="M126.562 0.5625H113.812C120.019 8.83725 123.375 18.9034 123.375 29.25V108.938H136.125V29.25C136.125 18.9034 132.769 8.83725 126.562 0.5625Z" fill="#FDB62F"/>
<path d="M46.875 64.3125H59.625V70.6875H46.875V64.3125Z" fill="#DB9E29"/>
<path d="M123.375 64.3125H136.125V70.6875H123.375V64.3125Z" fill="#DB9E29"/>
<path d="M24.2432 108.912L24.5619 115.313L81.9369 124.875L91.4994 118.5L101.062 124.875L158.437 115.313L158.756 108.925L24.2432 108.912Z" fill="#281207"/>
<path d="M181.053 28.485C179.057 12.5347 165.498 0.5625 149.423 0.5625H148.875C157.188 13.032 161.625 27.6849 161.625 42.6726V51.5625L158.438 115.312V124.875H177.563L181.923 74.7324C182.592 67.0219 182.854 59.289 182.707 51.5625C182.564 43.8519 182.012 36.1478 181.053 28.485Z" fill="#FDB62F"/>
<path d="M34.1252 0.5625H33.577C17.5024 0.5625 3.94277 12.5316 1.9474 28.485C0.0285224 43.8264 -0.26154 59.3304 1.07721 74.7356L5.43771 124.875H24.5627V115.312L21.3752 51.5625V42.6726C21.3752 27.6849 25.8122 13.032 34.1252 0.5625Z" fill="#FDB62F"/>
<path d="M24.0842 105.75H3.77344L5.43731 124.875H24.5623V115.312L24.0842 105.75Z" fill="#EDAB2C"/>
<path d="M158.916 105.75L158.438 115.312V124.875H177.563L179.226 105.75H158.916Z" fill="#EDAB2C"/>
<path d="M11.8125 42C10.053 42 8.625 40.572 8.625 38.8125C8.625 37.053 10.053 35.625 11.8125 35.625C13.572 35.625 15 37.053 15 38.8125C15 40.572 13.572 42 11.8125 42Z" fill="#30160A"/>
<path d="M11.8125 67.5C10.053 67.5 8.625 66.072 8.625 64.3125C8.625 62.553 10.053 61.125 11.8125 61.125C13.572 61.125 15 62.553 15 64.3125C15 66.072 13.572 67.5 11.8125 67.5Z" fill="#30160A"/>
<path d="M11.8125 93C10.053 93 8.625 91.572 8.625 89.8125C8.625 88.053 10.053 86.625 11.8125 86.625C13.572 86.625 15 88.053 15 89.8125C15 91.572 13.572 93 11.8125 93Z" fill="#30160A"/>
<path d="M171.188 42C169.428 42 168 40.572 168 38.8125C168 37.053 169.428 35.625 171.188 35.625C172.947 35.625 174.375 37.053 174.375 38.8125C174.375 40.572 172.947 42 171.188 42Z" fill="#30160A"/>
<path d="M171.188 67.5C169.428 67.5 168 66.072 168 64.3125C168 62.553 169.428 61.125 171.188 61.125C172.947 61.125 174.375 62.553 174.375 64.3125C174.375 66.072 172.947 67.5 171.188 67.5Z" fill="#30160A"/>
<path d="M171.188 93C169.428 93 168 91.572 168 89.8125C168 88.053 169.428 86.625 171.188 86.625C172.947 86.625 174.375 88.053 174.375 89.8125C174.375 91.572 172.947 93 171.188 93Z" fill="#30160A"/>
<path opacity="0.16" d="M0.292969 48.375H182.71V54.75H0.292969V48.375Z" fill="black"/>
<path d="M98.997 69.1575L96.498 63.2925C101.206 61.2812 104.25 56.6784 104.25 51.5625C104.25 44.5309 98.5316 38.8125 91.5 38.8125C84.4684 38.8125 78.75 44.5309 78.75 51.5625C78.75 56.6784 81.7941 61.2812 86.5052 63.2925L84.0062 69.1575C76.9395 66.1421 72.375 59.238 72.375 51.5625C72.375 41.0151 80.9526 32.4375 91.5 32.4375C102.047 32.4375 110.625 41.0151 110.625 51.5625C110.625 59.238 106.061 66.1421 98.997 69.1575Z" fill="#30160A"/>
<path d="M104.25 70.6875H101.062V67.5C101.062 62.2279 96.7721 57.9375 91.5 57.9375C86.2279 57.9375 81.9375 62.2279 81.9375 67.5V70.6875H78.75C76.9905 70.6875 75.5625 72.1155 75.5625 73.875V99.375C75.5625 101.134 76.9905 102.562 78.75 102.562H104.25C106.01 102.562 107.438 101.134 107.438 99.375V73.875C107.438 72.1155 106.01 70.6875 104.25 70.6875ZM88.3125 67.5C88.3125 65.7437 89.7437 64.3125 91.5 64.3125C93.2563 64.3125 94.6875 65.7437 94.6875 67.5V70.6875H88.3125V67.5Z" fill="#FDB62F"/>
<path d="M94.6875 83.4375C94.6875 81.678 93.2595 80.25 91.5 80.25C89.7405 80.25 88.3125 81.678 88.3125 83.4375C88.3125 84.5627 88.9277 85.503 89.8074 86.0704V96.1461H93.1958V86.0704C94.0723 85.4998 94.6875 84.5595 94.6875 83.4375Z" fill="#30160A"/>
</svg>
