<svg width="816" height="747" viewBox="0 0 816 747" fill="none" xmlns="http://www.w3.org/2000/svg">
<path d="M540.588 313.808C546.611 354.434 585.05 360.702 616.647 344.242C634.722 334.827 649.759 321.693 661.923 305.297C663.766 302.819 665.725 300.424 668.139 297.328C669.58 303.72 670.194 309.292 672.097 314.381C677.909 329.936 689.389 339.836 705.353 343.483C726.654 348.345 748.192 352.179 769.627 356.461C772.415 357.018 775.192 357.593 778.786 358.318C728.376 384.676 715.614 417.791 737.87 466.408C709.931 449.034 681.634 445.15 652.741 458.499C623.639 471.944 607.995 495.875 603.826 525.994C575.001 515.343 546.808 502.893 517.44 494.645C488.044 486.389 457.473 482.313 426.782 476.286C497.845 432.99 574.948 404.101 657.185 388.086C615.642 390.266 575.287 398.613 535.619 410.474C495.889 422.346 457.965 438.686 419.598 458.897C441.314 434.347 462.304 411.67 482.063 387.965C502.09 363.938 520.869 338.913 540.588 313.808Z" fill="#28896D"/>
<path d="M412.696 208.557C397.454 247.982 387.655 288.917 381.84 330.84C376.075 372.425 375.011 414.194 377.423 454.025C351.146 399.546 324.207 343.706 297.345 288.042C296.445 288.318 297.038 287.905 297.448 288.042C326.337 297.602 349.196 276.95 353.56 249.795C357.392 225.942 352.131 203.417 342.098 181.848C339.494 176.245 336.093 170.998 333.075 165.617C333.738 165.165 334.259 164.54 334.564 164.633C361.356 172.847 377.931 167.953 395.049 145.385C408.396 127.787 420.857 109.528 435.174 89.5281C433.98 113.954 439.123 134.367 455.729 150.668C472.33 166.959 492.36 173.439 516.952 171.25C465.307 202.233 454.475 279.634 516.348 320.1C467.061 358.6 427.618 405.247 397.546 460.098C386.107 375.123 392.177 291.541 412.696 208.557Z" fill="#28896D"/>
<path d="M275.921 309.781C306.103 363.595 336.685 418.124 368.315 474.52C302.86 421.044 231.454 382.244 151.473 359.8C227.713 391.52 296.942 434.143 356.922 489.532C326.267 489.538 295.275 487.635 264.629 490.09C234.291 492.521 204.305 499.341 174.471 504.184C178.431 441.414 117.835 395.497 54.1916 419.6C69.5939 400.494 75.9125 380.36 71.8183 357.707C67.7209 334.988 54.5292 318.745 33.1905 306.395C37.4189 306.247 39.8775 306.072 42.3408 306.09C61.5262 306.199 80.7203 306.773 99.8862 306.377C131.169 305.732 144.06 296.151 154.615 266.337C162.538 286.556 173.889 303.912 189.922 317.678C197.227 323.957 205.304 329.895 213.996 333.883C241.474 346.528 263.745 336.95 275.921 309.781Z" fill="#28896D"/>
<path d="M478.009 514.902C489.937 536.394 482.475 562.238 460.891 574.228C439.544 586.086 413.5 578.45 401.615 556.831C390.059 535.818 397.553 509.888 418.594 498.076C440.019 486.048 466.096 493.436 478.009 514.902Z" fill="#CC291F"/>
<path d="M378.979 522.931C389.39 541.903 382.67 565.083 363.711 575.578C345.057 585.903 321.114 578.946 310.904 560.251C300.683 541.516 307.629 517.717 326.333 507.421C345.134 497.072 368.583 503.985 378.979 522.931Z" fill="#CC291F"/>
<path d="M419.946 591.047C429.18 607.778 422.858 629.52 406.123 638.585C389.345 647.674 367.56 641.192 358.665 624.454C349.853 607.864 356.003 586.712 372.31 577.52C388.871 568.186 410.76 574.403 419.946 591.047Z" fill="#CC291F"/>
<path d="M426.985 525.198C430.821 531.875 428.697 539.659 422.001 543.46C415.418 547.198 407.235 545.057 403.553 538.615C399.95 532.335 402.305 523.654 408.575 520.033C414.921 516.383 423.27 518.717 426.985 525.198Z" fill="white"/>
<path d="M329.058 548.442C323.167 551.654 315.55 549.276 312.483 543.257C309.56 537.513 311.739 530.42 317.383 527.278C323.355 523.963 330.736 526.289 333.882 532.471C336.821 538.263 334.679 545.381 329.058 548.442Z" fill="white"/>
<path d="M375.696 613.893C369.654 616.755 364.536 615.704 360.724 610.481C357.166 605.609 359.15 598.087 364.627 595.302C370.485 592.315 375.636 593.588 379.027 599.287C382.454 605.07 380.479 609.95 375.696 613.893Z" fill="white"/>
</svg>
